<?xml version="1.0" encoding="UTF-8"?><svg xmlns="http://www.w3.org/2000/svg" viewBox="0 0 4572.59 2283.48"><defs><style>.d{fill:#040000;}</style></defs><g id="a"/><g id="b"><g id="c"><path class="d" d="M4352.94,1231h-219.65v219.65h219.65v613.18h-1302.31c-280.63,0-523.91-159.88-643.74-393.53-1.52-2.97-3.02-5.95-4.51-8.95-.29-.58-.57-1.16-.85-1.74-1.15-2.34-2.29-4.68-3.41-7.03-.42-.89-.84-1.77-1.26-2.66-.99-2.09-1.97-4.18-2.94-6.27-.44-.95-.87-1.89-1.31-2.84-.97-2.13-1.93-4.26-2.88-6.4-.38-.86-.77-1.72-1.15-2.59-1.12-2.55-2.23-5.11-3.32-7.68-.18-.43-.37-.86-.56-1.3-1.31-3.08-2.59-6.17-3.85-9.27-.17-.41-.33-.83-.5-1.24-1.06-2.61-2.1-5.22-3.13-7.85-.35-.9-.7-1.8-1.04-2.7-.84-2.17-1.67-4.35-2.49-6.53-.38-1.01-.76-2.02-1.13-3.03-.79-2.14-1.57-4.28-2.35-6.42-.35-.98-.71-1.96-1.06-2.94-.84-2.38-1.67-4.77-2.5-7.16-.25-.72-.5-1.43-.74-2.15-1.08-3.17-2.13-6.34-3.17-9.53-.03-.08-.05-.17-.08-.25-.98-3.03-1.94-6.07-2.88-9.12-.28-.9-.55-1.81-.83-2.72-.69-2.25-1.37-4.51-2.03-6.77-.32-1.07-.63-2.15-.94-3.23-.62-2.14-1.23-4.29-1.83-6.44-.3-1.08-.6-2.17-.9-3.25-.62-2.27-1.23-4.55-1.83-6.83-.25-.93-.5-1.86-.74-2.79-.82-3.17-1.62-6.34-2.4-9.52,0-.03-.01-.06-.02-.09-.79-3.25-1.56-6.52-2.31-9.78-.2-.88-.4-1.77-.6-2.66-.53-2.36-1.05-4.71-1.56-7.08-.24-1.13-.48-2.26-.72-3.39-.45-2.16-.9-4.32-1.33-6.49-.24-1.17-.47-2.35-.7-3.53-.43-2.21-.85-4.43-1.26-6.65-.2-1.08-.41-2.17-.6-3.25-.48-2.66-.94-5.33-1.39-8-.11-.63-.22-1.25-.32-1.88-.55-3.31-1.08-6.63-1.58-9.96-.12-.81-.23-1.61-.35-2.42-.37-2.51-.74-5.02-1.08-7.54-.16-1.16-.31-2.32-.46-3.48-.29-2.2-.58-4.4-.85-6.6-.15-1.24-.3-2.48-.45-3.73-.26-2.18-.5-4.37-.74-6.55-.13-1.2-.26-2.41-.39-3.61-.25-2.44-.49-4.88-.72-7.32-.09-.93-.18-1.86-.27-2.8-.3-3.37-.58-6.75-.84-10.13-.04-.59-.08-1.19-.12-1.78-.2-2.79-.4-5.59-.57-8.39-.07-1.16-.13-2.32-.2-3.48-.13-2.26-.25-4.52-.36-6.78-.06-1.28-.12-2.57-.17-3.86-.09-2.19-.17-4.37-.25-6.57-.04-1.28-.09-2.56-.12-3.83-.07-2.34-.12-4.68-.16-7.02-.02-1.1-.05-2.21-.06-3.31-.05-3.43-.08-6.87-.08-10.32s.03-6.88,.08-10.32c.02-1.1,.04-2.21,.06-3.31,.04-2.34,.09-4.68,.16-7.02,.04-1.28,.08-2.56,.12-3.83,.07-2.19,.15-4.38,.25-6.57,.05-1.29,.11-2.57,.17-3.86,.11-2.26,.23-4.52,.36-6.78,.07-1.16,.13-2.32,.2-3.48,.17-2.8,.36-5.6,.57-8.39,.04-.59,.08-1.19,.12-1.78,.26-3.38,.54-6.76,.84-10.13,.08-.93,.18-1.86,.27-2.8,.23-2.44,.46-4.88,.72-7.32,.13-1.21,.26-2.41,.39-3.61,.24-2.19,.48-4.37,.74-6.55,.15-1.25,.3-2.49,.45-3.74,.27-2.2,.55-4.39,.85-6.58,.15-1.17,.31-2.33,.47-3.5,.35-2.52,.71-5.03,1.08-7.53,.12-.81,.23-1.62,.35-2.42,.51-3.33,1.03-6.65,1.58-9.96,.1-.63,.22-1.25,.32-1.88,.45-2.67,.91-5.34,1.39-8,.2-1.09,.4-2.18,.6-3.27,.41-2.22,.83-4.43,1.26-6.64,.23-1.17,.46-2.35,.7-3.52,.43-2.17,.88-4.33,1.33-6.49,.24-1.13,.47-2.26,.72-3.39,.51-2.36,1.03-4.72,1.56-7.08,.2-.88,.39-1.77,.6-2.65,.75-3.27,1.52-6.53,2.31-9.78,0-.04,.02-.08,.03-.12,.78-3.17,1.58-6.34,2.39-9.49,.24-.93,.49-1.86,.74-2.79,.6-2.28,1.21-4.56,1.83-6.83,.3-1.08,.6-2.17,.9-3.25,.6-2.15,1.21-4.3,1.83-6.45,.31-1.07,.62-2.15,.94-3.22,.67-2.26,1.35-4.52,2.03-6.78,.28-.9,.55-1.81,.83-2.71,.94-3.05,1.9-6.1,2.89-9.14,.03-.08,.05-.16,.08-.24,1.03-3.19,2.09-6.36,3.17-9.53,.24-.71,.49-1.43,.74-2.14,.82-2.4,1.65-4.79,2.5-7.17,.35-.98,.7-1.95,1.05-2.93,.77-2.15,1.56-4.29,2.35-6.43,.37-1.01,.75-2.02,1.13-3.03,.82-2.18,1.65-4.36,2.5-6.54,.35-.9,.69-1.79,1.04-2.69,1.03-2.63,2.07-5.25,3.13-7.86,.17-.41,.33-.82,.49-1.23,1.26-3.1,2.55-6.19,3.85-9.27,.18-.43,.37-.85,.55-1.28,1.1-2.57,2.21-5.14,3.33-7.7,.38-.86,.76-1.71,1.14-2.57,.96-2.15,1.92-4.29,2.9-6.43,.43-.94,.86-1.88,1.29-2.81,.98-2.11,1.96-4.22,2.96-6.32,.41-.87,.82-1.74,1.24-2.61,1.14-2.37,2.28-4.74,3.45-7.09,.28-.56,.55-1.12,.82-1.69,1.49-3,2.99-5.99,4.51-8.96h0c119.82-233.64,363.11-393.53,643.73-393.53,166.65,0,320.13,56.39,442.41,151.13l-901.35,901.35h310.63l148.66-148.66,148.66,148.66h310.63l-303.97-303.97,8.25-8.25,.02,.02,429.86-429.86c18.43,26.47,35.14,54.23,49.95,83.12,1.63,3.17,3.23,6.37,4.81,9.57,.35,.7,.69,1.41,1.04,2.12,1.24,2.53,2.46,5.07,3.68,7.61,.37,.78,.74,1.56,1.11,2.35,1.41,3,2.81,6.01,4.18,9.03,.08,.17,.15,.33,.23,.5,1.52,3.36,3.02,6.74,4.5,10.13,.16,.37,.32,.75,.48,1.12,1.29,2.97,2.56,5.96,3.8,8.95,.23,.56,.47,1.12,.7,1.68,4.27,10.32,8.31,20.75,12.11,31.3,.08,.21,.15,.43,.23,.64,10.43,29.04,19.05,58.93,25.73,89.55h.02c3.24,14.86,6.03,29.89,8.35,45.08h-219.87v219.65h219.86c-11.89,78.01-36.24,151.93-70.97,219.65h239.72c38.27-102.56,59.2-213.57,59.2-329.48s-19.53-219.34-55.35-318.95v-.03c-1.27-3.5-2.55-6.98-3.84-10.46v-.03h-.01c-32.42-86.9-77.3-167.73-132.46-240.32l585.14-585.14-.04-.04L4572.59,0H2153.53l-44.75,44.75-.26-.26-567.74,567.74c-162.73-133.75-371.05-214.05-598.13-214.05C422.04,398.18,0,820.22,0,1340.83c0,115.9,20.93,226.91,59.2,329.48h239.72c-50.67-98.81-79.27-210.8-79.27-329.48,0-399.3,323.7-723,723-723,166.4,0,319.66,56.22,441.84,150.69l-357.76,357.76h0L482.71,1670.31h310.63l148.66-148.66,148.66,148.66h310.63l-303.97-303.97,84.74-84.74h0l353.96-353.96c81.71,117.12,129.64,259.56,129.64,413.2,0,118.67-28.59,230.67-79.27,329.48h239.72c26-69.69,43.99-143.28,52.85-219.65h235.02v-2.92c.02,.16,.04,.31,.05,.47,.23,2.01,.47,4.01,.72,6.02,.2,1.7,.4,3.39,.61,5.08,.26,2.09,.54,4.17,.81,6.26,.21,1.59,.42,3.18,.64,4.77,.29,2.15,.6,4.29,.91,6.43,.22,1.5,.43,3,.66,4.5,.33,2.21,.67,4.42,1.01,6.63,.22,1.39,.44,2.79,.67,4.18,.37,2.3,.75,4.59,1.13,6.89,.21,1.23,.42,2.46,.64,3.69,.42,2.44,.85,4.88,1.29,7.32,.17,.92,.34,1.84,.51,2.75,2.98,16.16,6.37,32.18,10.16,48.04,.1,.43,.2,.85,.3,1.28,.7,2.93,1.43,5.85,2.16,8.77,.14,.54,.27,1.08,.41,1.62,.73,2.91,1.48,5.81,2.25,8.71,.13,.49,.26,.98,.39,1.47,.79,2.99,1.59,5.97,2.41,8.94,.08,.29,.16,.58,.24,.87,7.3,26.44,15.73,52.41,25.22,77.86v.04h.01c133.62,358.13,478.74,613.18,883.45,613.18h1521.96V227.66l-219.65,219.65v783.69ZM1693.2,770.45L2227.32,236.33h1798.39l-376.37,376.37c-162.81-134.03-371.36-214.52-598.71-214.52-433.51,0-798.66,292.64-908.71,691.14-.07,.25-.14,.5-.21,.76-.83,3.01-1.64,6.02-2.44,9.04-.12,.45-.24,.9-.36,1.36-.77,2.93-1.53,5.87-2.27,8.81-.13,.5-.25,1-.38,1.5-.74,2.96-1.47,5.92-2.19,8.88-.09,.37-.18,.75-.27,1.12-3.82,15.95-7.22,32.07-10.22,48.33-.16,.85-.32,1.69-.47,2.54-.45,2.48-.88,4.97-1.31,7.46-.2,1.18-.41,2.36-.61,3.55-.39,2.33-.78,4.67-1.15,7.01-.22,1.34-.43,2.69-.64,4.03-.35,2.25-.7,4.5-1.04,6.76-.22,1.45-.43,2.89-.64,4.34-.32,2.19-.63,4.38-.93,6.58-.21,1.53-.41,3.05-.61,4.58-.28,2.14-.57,4.29-.84,6.43-.2,1.6-.39,3.2-.58,4.81-.25,2.1-.51,4.19-.75,6.29-.02,.14-.03,.29-.05,.43v-2.92h-235.02c-19.94-171.87-86.12-329.64-185.76-460.56Z"/></g></g></svg>